<svg width="1920" height="1080" viewBox="0 0 1920 1080" fill="none" xmlns="http://www.w3.org/2000/svg">
<path d="M1609 768C1584.15 768 1564 747.853 1564 723C1564 698.147 1584.15 678 1609 678H1679C1703.85 678 1724 698.147 1724 723C1724 747.853 1703.85 768 1679 768H1609Z" fill="white"/>
<path d="M1637 641.5C1615.74 641.5 1598.5 624.263 1598.5 603C1598.5 581.737 1615.74 564.5 1637 564.5H1707C1728.26 564.5 1745.5 581.737 1745.5 603C1745.5 624.263 1728.26 641.5 1707 641.5H1637Z" fill="black" stroke="white" stroke-width="13"/>
<path d="M1684 603C1684 636.137 1657.14 663 1624 663C1590.86 663 1564 636.137 1564 603C1564 569.863 1590.86 543 1624 543C1657.14 543 1684 569.863 1684 603Z" fill="white"/>
<path d="M1745.5 723C1745.5 752.547 1721.55 776.5 1692 776.5C1662.45 776.5 1638.5 752.547 1638.5 723C1638.5 693.453 1662.45 669.5 1692 669.5C1721.55 669.5 1745.5 693.453 1745.5 723Z" fill="black" stroke="white" stroke-width="13"/>
<path d="M659 603C659 636.137 632.137 663 599 663C565.863 663 539 636.137 539 603C539 569.863 565.863 543 599 543C632.137 543 659 569.863 659 603Z" fill="white"/>
<path d="M414 603C414 569.863 440.863 543 474 543C507.137 543 534 569.863 534 603V723C534 756.137 507.137 783 474 783C440.863 783 414 756.137 414 723V603Z" fill="white"/>
<path d="M909 602C909 568.863 935.863 542 969 542C1002.14 542 1029 568.863 1029 602V722C1029 755.137 1002.14 782 969 782C935.863 782 909 755.137 909 722V602Z" fill="white"/>
<path d="M1029 602C1029 568.863 1055.86 542 1089 542C1122.14 542 1149 568.863 1149 602V722C1149 755.137 1122.14 782 1089 782C1055.86 782 1029 755.137 1029 722V602Z" fill="white"/>
<path d="M1334 723C1334 756.137 1307.14 783 1274 783C1240.86 783 1214 756.137 1214 723C1214 689.863 1240.86 663 1274 663C1307.14 663 1334 689.863 1334 723Z" fill="white"/>
<path d="M1214 663C1180.86 663 1154 636.137 1154 603C1154 569.863 1180.86 543 1214 543H1334C1367.14 543 1394 569.863 1394 603C1394 636.137 1367.14 663 1334 663H1214Z" fill="white"/>
<path d="M1439 623C1416.91 623 1399 605.091 1399 583C1399 560.909 1416.91 543 1439 543H1519C1541.09 543 1559 560.909 1559 583C1559 605.091 1541.09 623 1519 623H1439Z" fill="white"/>
<path d="M1439 703C1416.91 703 1399 685.091 1399 663C1399 640.909 1416.91 623 1439 623H1519C1541.09 623 1559 640.909 1559 663C1559 685.091 1541.09 703 1519 703H1439Z" fill="white"/>
<path d="M1439 783C1416.91 783 1399 765.091 1399 743C1399 720.909 1416.91 703 1439 703H1519C1541.09 703 1559 720.909 1559 743C1559 765.091 1541.09 783 1519 783H1439Z" fill="white"/>
<path d="M664 783V663C664 596.726 717.726 543 784 543C850.274 543 904 596.726 904 663V783H664Z" fill="white"/>
<path d="M168 543H288C354.274 543 408 596.726 408 663C408 729.274 354.274 783 288 783H168V543Z" fill="white"/>
<path d="M168 412.5C168 349.263 219.263 298 282.5 298H293.5C356.737 298 408 349.263 408 412.5V423.5C408 486.737 356.737 538 293.5 538H168V412.5Z" fill="white"/>
</svg>
