<svg width="180" height="180" viewBox="0 0 180 180" fill="none" xmlns="http://www.w3.org/2000/svg">
<path d="M157 105.25C157 114.225 149.725 121.5 140.75 121.5C131.775 121.5 124.5 114.225 124.5 105.25C124.5 96.2754 131.775 89 140.75 89C149.725 89 157 96.2754 157 105.25Z" fill="#0075FF"/>
<path d="M92 105.25C92 96.2754 99.2754 89 108.25 89C117.225 89 124.5 96.2754 124.5 105.25V137.75C124.5 146.725 117.225 154 108.25 154C99.2754 154 92 146.725 92 137.75V105.25Z" fill="#04B700"/>
<path d="M27 89H59.5C77.4493 89 92 103.551 92 121.5C92 139.449 77.4493 154 59.5 154H27V89Z" fill="#FFB800"/>
<path d="M27 55.0104C27 37.8838 40.8838 24 58.0104 24H60.9896C78.1162 24 92 37.8838 92 55.0104V57.9896C92 75.1162 78.1162 89 60.9896 89H27V55.0104Z" fill="#FF1327"/>
<path d="M19 154V162H27H59.5C70.4507 162 80.3862 157.654 87.6759 150.592C91.9613 157.443 99.5735 162 108.25 162C121.643 162 132.5 151.143 132.5 137.75V128.061C135.075 128.992 137.853 129.5 140.75 129.5C154.143 129.5 165 118.643 165 105.25C165 91.8571 154.143 81 140.75 81C134.499 81 128.8 83.3653 124.5 87.2497C120.2 83.3653 114.501 81 108.25 81C99.5735 81 91.9613 85.5567 87.6759 92.4076C86.5648 91.3312 85.3922 90.318 84.1639 89.3736C93.7709 82.2679 100 70.8562 100 57.9896V55.0104C100 33.4656 82.5344 16 60.9896 16H58.0104C36.4656 16 19 33.4656 19 55.0104V89V154Z" stroke="black" stroke-width="16"/>
</svg>
